<svg width="24" height="24" viewBox="0 0 24 24" fill="none" xmlns="http://www.w3.org/2000/svg">
<path fill-rule="evenodd" clip-rule="evenodd" d="M5 10C5 6.13614 8.13614 3 12 3C15.8639 3 19 6.13614 19 10V18.5C19 18.7739 18.7739 19 18.5 19H15H14.5H9.5H9H5.5C5.22614 19 5 18.7739 5 18.5V10ZM9.05046 20H5.5C4.67386 20 4 19.3261 4 18.5V10C4 5.58386 7.58386 2 12 2C16.4161 2 20 5.58386 20 10V18.5C20 19.3261 19.3261 20 18.5 20H14.9495C14.7166 21.1383 13.705 22 12.5 22H11.5C10.295 22 9.28341 21.1383 9.05046 20ZM10.0865 20C10.2939 20.5806 10.8512 21 11.5 21H12.5C13.1488 21 13.7061 20.5806 13.9135 20H10.0865Z" fill="#283237"/>
</svg>
