<svg width="12" height="8" viewBox="0 0 12 8" fill="none" xmlns="http://www.w3.org/2000/svg">
<path d="M8.1263 7.16781C7.94284 7.3742 7.96143 7.69024 8.16782 7.8737C8.37421 8.05716 8.69025 8.03857 8.8737 7.83218L11.8718 4.33428C11.9515 4.24571 12 4.12852 12 4C12 3.87206 11.9519 3.75534 11.8729 3.66691L8.87371 0.167812C8.69025 -0.0385793 8.37421 -0.0571693 8.16782 0.126289C7.96143 0.309748 7.94284 0.625785 8.1263 0.832176L10.3866 3.5L0.5 3.5C0.223858 3.5 3.73832e-07 3.72386 3.49691e-07 4C3.2555e-07 4.27614 0.223858 4.5 0.5 4.5L10.3866 4.5L8.1263 7.16781Z" fill="#6595F4"/>
</svg>
