<svg width="24" height="24" viewBox="0 0 24 24" fill="none" xmlns="http://www.w3.org/2000/svg">
<path d="M6.8737 7.83219C7.05716 7.6258 7.03857 7.30976 6.83218 7.1263C6.62579 6.94284 6.30975 6.96143 6.1263 7.16782L2.12817 11.6657C2.04849 11.7543 2 11.8715 2 12C2 12.1279 2.04805 12.2447 2.1271 12.3331L6.1263 16.8322C6.30975 17.0386 6.62579 17.0572 6.83218 16.8737C7.03857 16.6903 7.05716 16.3742 6.8737 16.1678L3.61342 12.5H21.5C21.7761 12.5 22 12.2761 22 12C22 11.7239 21.7761 11.5 21.5 11.5H3.61343L6.8737 7.83219Z" fill="#283237"/>
</svg>
