<svg width="24" height="24" viewBox="0 0 24 24" fill="none" xmlns="http://www.w3.org/2000/svg">
<path d="M22.5 13.5V4.5C22.5 3.94772 22.0523 3.5 21.5 3.5H12.3H2.5C1.94772 3.5 1.5 3.94772 1.5 4.5V16.5C1.5 17.0523 1.94772 17.5 2.5 17.5H4.5C5.05228 17.5 5.5 17.9477 5.5 18.5V19.6492C5.5 20.5945 6.69036 21.0121 7.28087 20.2739L9.19976 17.8753C9.38953 17.6381 9.67684 17.5 9.98062 17.5H21.5C22.0523 17.5 22.5 17.0523 22.5 16.5V13.5Z" stroke="#949BAD" stroke-miterlimit="10" stroke-linecap="round" stroke-linejoin="round"/>
<path d="M16.5 8.5L7.5 8.51004V8.52004L16.5 8.51V8.5Z" stroke="#949BAD" stroke-miterlimit="10" stroke-linecap="round" stroke-linejoin="round"/>
<path d="M14.5 12L7.5 12.01V12.02L14.5 12.01V12Z" stroke="#949BAD" stroke-miterlimit="10" stroke-linecap="round" stroke-linejoin="round"/>
</svg>
