<svg width="25" height="23" viewBox="0 0 25 23" fill="none" xmlns="http://www.w3.org/2000/svg">
<path fill-rule="evenodd" clip-rule="evenodd" d="M0.5 4.05882C0.5 2.09334 2.34682 0.5 4.625 0.5H20.375C22.6532 0.5 24.5 2.09334 24.5 4.05882V14.8538C24.5 16.8193 22.6532 18.4126 20.375 18.4126H12.909L7.56747 22.2734C7.23245 22.5155 6.76519 22.5684 6.36916 22.4089C5.97313 22.2494 5.72 21.9065 5.72 21.5294V18.4126H4.625C2.34682 18.4126 0.5 16.8193 0.5 14.8538V4.05882ZM4.625 2.44118C3.58947 2.44118 2.75 3.16542 2.75 4.05882V14.8538C2.75 15.7472 3.58947 16.4714 4.625 16.4714H6.845C7.46632 16.4714 7.97 16.906 7.97 17.442V19.4501L11.7775 16.698C11.98 16.5516 12.2358 16.4714 12.5 16.4714H20.375C21.4105 16.4714 22.25 15.7472 22.25 14.8538V4.05882C22.25 3.16542 21.4105 2.44118 20.375 2.44118H4.625Z"/>
</svg>
