<svg width="16" height="14" viewBox="0 0 16 14" fill="none" xmlns="http://www.w3.org/2000/svg">
<path d="M2.94482 9.33313L2.94473 9.33303C1.41752 7.61972 0.732624 5.92166 0.750335 4.11586C0.770114 2.28141 2.33206 0.75 4.27247 0.75C5.82189 0.75 6.86404 1.60059 7.43636 2.25247L7.99997 2.89444L8.56358 2.25247C9.1359 1.60059 10.178 0.75 11.7275 0.75C13.6681 0.75 15.23 2.28166 15.2496 4.11499C15.2688 5.92149 14.5842 7.61827 13.0554 9.33167L13.055 9.33221C11.7953 10.7467 10.1533 11.7696 8.63487 12.7155C8.42029 12.8492 8.20818 12.9813 7.99997 13.1128C7.79151 12.9811 7.57914 12.8488 7.36429 12.715C5.84605 11.7692 4.20428 10.7465 2.94482 9.33313Z" stroke="#949BAD" stroke-width="1.5"/>
</svg>
