<svg width="24" height="24" viewBox="0 0 24 24" fill="none" xmlns="http://www.w3.org/2000/svg">
<path d="M10.8238 19.0017L10.8258 19.0036C11.1776 19.3355 11.6276 19.5 12.091 19.5C12.5528 19.5 13.0122 19.334 13.3937 18.9988L17.7291 14.4648L17.7381 14.4554L17.7382 14.4555L19.7631 12.4453L19.7687 12.4397L19.7746 12.4342C21.0095 11.2844 21.632 9.72025 21.4764 8.28923L21.4763 8.2881C21.3443 7.04764 20.6432 5.96986 19.4546 5.24212C17.4499 4.02094 14.7781 4.32344 12.9486 6.03001L12.9481 6.03051C12.4648 6.48007 11.7159 6.47867 11.2342 6.02731L11.0828 5.88545L10.8238 19.0017ZM10.8238 19.0017L4.041 12.6748L4.04076 12.6746M10.8238 19.0017L4.04076 12.6746M4.04076 12.6746C3.05941 11.7604 2.49257 10.4524 2.50007 9.1111L4.04076 12.6746ZM2.50007 9.11096C2.50765 7.83548 3.01084 6.68073 3.92047 5.8494L2.50007 9.11096ZM3.92059 5.84929C5.9033 4.0387 9.12379 4.05405 11.0824 5.88508L3.92059 5.84929Z" stroke="#283237"/>
</svg>
