<svg width="24" height="24" viewBox="0 0 24 24" fill="none" xmlns="http://www.w3.org/2000/svg">
<path d="M21.5 9.05117C21.5 8.70806 21.3241 8.3889 21.034 8.20568L12.534 2.83726C12.2078 2.63124 11.7922 2.63124 11.466 2.83726L2.96601 8.20568C2.67591 8.3889 2.5 8.70806 2.5 9.05117V20.5C2.5 21.0523 2.94772 21.5 3.5 21.5H8.5C9.05228 21.5 9.5 21.0523 9.5 20.5V17C9.5 15.62 10.62 14.5 12 14.5C13.38 14.5 14.5 15.62 14.5 17V18.5V20.5C14.5 21.0523 14.9477 21.5 15.5 21.5H20.5C21.0523 21.5 21.5 21.0523 21.5 20.5V9.05117Z" stroke="#949BAD" stroke-miterlimit="10" stroke-linecap="round" stroke-linejoin="round"/>
</svg>
