<svg width="23" height="24" viewBox="0 0 23 24" fill="none" xmlns="http://www.w3.org/2000/svg">
<path fill-rule="evenodd" clip-rule="evenodd" d="M18.0665 1.34646C19.1951 0.217846 21.0249 0.217848 22.1535 1.34646C23.2822 2.47507 23.2822 4.30491 22.1535 5.43353L15.0476 12.5395C14.1958 13.3912 13.1339 14.0025 11.9696 14.3113L9.97947 14.839C9.60738 14.9376 9.21092 14.8304 8.93927 14.5577C8.66761 14.285 8.56198 13.8881 8.66212 13.5164L9.20733 11.4927C9.5183 10.3385 10.1269 9.28607 10.9722 8.44078L18.0665 1.34646ZM20.6288 2.87116C20.3423 2.58461 19.8777 2.58461 19.5912 2.87116L12.4969 9.96548C11.9185 10.5438 11.5021 11.2639 11.2893 12.0537L11.2292 12.2768L11.4169 12.227C12.2135 12.0158 12.9401 11.5975 13.5229 11.0148L20.6288 3.90883C20.9154 3.62228 20.9154 3.1577 20.6288 2.87116ZM3.95312 6.96875C2.96074 6.96875 2.15625 7.77324 2.15625 8.76562V19.5469C2.15625 20.5393 2.96074 21.3438 3.95313 21.3438H14.7344C15.7268 21.3438 16.5312 20.5393 16.5312 19.5469V14.1562C16.5312 13.5608 17.0139 13.0781 17.6094 13.0781C18.2048 13.0781 18.6875 13.5608 18.6875 14.1562V19.5469C18.6875 21.7301 16.9176 23.5 14.7344 23.5H3.95313C1.76987 23.5 0 21.7301 0 19.5469V8.76562C0 6.58237 1.76987 4.8125 3.95312 4.8125H9.34375C9.93918 4.8125 10.4219 5.29519 10.4219 5.89062C10.4219 6.48606 9.93918 6.96875 9.34375 6.96875H3.95312Z"/>
</svg>
