<svg width="57" height="56" viewBox="0 0 57 56" fill="none" xmlns="http://www.w3.org/2000/svg">
<g clip-path="url(#clip0)">
<path d="M45.9678 0H42.9406L38.3785 4.91967L34.7357 8.84757L23.7688 20.6744V24.1632H31.602V40.5138C31.602 42.4915 31.8479 44.3065 32.3163 45.947C32.6821 47.221 33.1834 48.3892 33.8105 49.4437C36.0732 48.2246 38.1094 46.633 39.8437 44.7534C39.8669 44.7279 39.8901 44.7004 39.9153 44.6749C42.149 42.2288 43.8735 39.2986 44.911 36.0547C45.153 35.3001 45.3562 34.5298 45.5227 33.7439C45.8536 32.1719 46.0278 30.5412 46.0278 28.8693V12.6696V0H45.9678Z" fill="#283237"/>
<path d="M31.6001 40.5137V24.1632H23.7668V20.6743L34.7338 8.8475C31.2962 6.77771 27.2993 5.56445 23.012 5.56445C10.5914 5.56445 0.472279 15.5292 0.0174201 27.9931H0V52.1563H22.2842C22.5261 52.1641 22.77 52.17 23.0139 52.17C23.2675 52.17 23.5191 52.1661 23.7688 52.1563H23.8656V52.1524C27.4522 52.0191 30.8239 51.0508 33.8105 49.4417C32.3743 47.0328 31.6001 44.0281 31.6001 40.5137Z" fill="#3468EE"/>
<path d="M56.7179 24.1633V12.6697H46.0239V24.1633H46.3394H56.7179Z" fill="#3569EE"/>
<path d="M56.718 42.9676H50.4758C48.0176 42.9676 46.0259 40.9508 46.0259 38.4615V28.8672C46.0259 37.7853 41.0747 45.5255 33.8086 49.4416C36.3016 53.6302 40.8057 55.9999 46.8156 55.9999H56.718V42.9676Z" fill="#3569EE"/>
</g>
<defs>
<clipPath id="clip0">
<rect width="56.7179" height="56" fill="white"/>
</clipPath>
</defs>
</svg>
