<svg width="27" height="34" viewBox="0 0 27 34" fill="none" xmlns="http://www.w3.org/2000/svg">
<g opacity="0.4">
<path d="M20.0004 2.62836H19.0547L17.6295 4.18496L16.4915 5.42776L13.0654 9.16982V10.2737H15.5125V15.4471C15.5125 16.0728 15.5893 16.6471 15.7357 17.1662C15.85 17.5693 16.0066 17.9389 16.2025 18.2725C16.9093 17.8868 17.5455 17.3832 18.0872 16.7885C18.0945 16.7804 18.1018 16.7718 18.1096 16.7637C18.8074 15.9897 19.3462 15.0626 19.6703 14.0362C19.7459 13.7975 19.8094 13.5537 19.8614 13.3051C19.9648 12.8077 20.0192 12.2917 20.0192 11.7627V6.63708V2.62836H20.0004Z" fill="#2C343F"/>
<path d="M15.512 15.4469V10.2736H13.0649V9.16968L16.491 5.42762C15.4171 4.77273 14.1685 4.38885 12.8291 4.38885C8.94891 4.38885 5.78768 7.54175 5.64558 11.4854H5.64014V19.1307H12.6017C12.6773 19.1332 12.7535 19.135 12.8297 19.135C12.9089 19.135 12.9875 19.1338 13.0655 19.1307H13.0958V19.1295C14.2162 19.0873 15.2696 18.7809 16.2026 18.2718C15.7539 17.5096 15.512 16.5589 15.512 15.4469Z" fill="#6595F4"/>
<path d="M23.3589 10.2736V6.63696H20.0181V10.2736H20.1166H23.3589Z" fill="#6595F4"/>
<path d="M23.3588 16.2236H21.4087C20.6408 16.2236 20.0186 15.5855 20.0186 14.7979V11.7622C20.0186 14.5839 18.4718 17.033 16.2019 18.272C16.9807 19.5973 18.3878 20.3471 20.2653 20.3471H23.3588V16.2236Z" fill="#6595F4"/>
</g>
<g opacity="0.4">
<path d="M2.67027 28.9396H7.47332V27.9231H3.60719C3.3918 27.9231 3.28411 27.8298 3.28411 27.6534V27.4771H7.32255V26.5021H3.28411V26.0872H7.43025V25.0915H1.83027V28.2032C1.8195 28.6388 2.2395 28.9396 2.67027 28.9396ZM2.53027 32.2587H3.91949V30.3087H5.36256V32.2587H6.75179V30.3087H8.8087V29.1782H2.25027C1.75489 29.1782 1.43181 29.0744 1.0872 28.7218L-0.000488281 29.23C0.527201 29.8627 1.28104 30.3087 2.13181 30.3087H2.53027V32.2587Z" fill="#2C343F"/>
<path d="M10.8532 30.5266H14.7624V29.396H11.7255C11.5101 29.396 11.4024 29.2819 11.4024 29.0952V28.4728H13.7501V27.3423H11.4024V26.4813H14.4824V25.3508H10.0024V29.7279C10.0024 30.1843 10.4224 30.5266 10.8532 30.5266ZM17.3147 24.9877H15.9039V27.4252H14.3531V28.5766H15.9039V30.6925C15.9039 31.1489 15.8501 31.5223 15.8178 31.7194L17.0562 32.3002C17.3254 31.792 17.3147 30.9518 17.3147 30.6303V24.9877Z" fill="#2C343F"/>
<path d="M20.6935 33.1875C20.6935 33.6863 21.093 33.9877 21.5465 33.9877H26.2005V30.1113H24.7644V30.8907H22.1296V30.1113H20.6935V33.1875ZM18.7822 26.2764H21.3738V26.796H18.8038V28.7395C18.8038 29.1967 19.2249 29.5397 19.6461 29.5397H23.1123V28.4069H20.5747C20.3264 28.4069 20.2616 28.303 20.2616 28.1055V27.8769H22.8315V25.1748H18.7822V26.2764ZM24.9047 29.706C25.0235 29.2383 25.0343 29.0616 25.0343 28.4693V27.7106H25.6174V28.5004C25.6174 28.9577 25.5634 29.3318 25.531 29.5293L26.7404 30.1113C27.0104 29.6021 26.9996 28.7602 26.9996 28.4381V24.9877H25.6174V26.4947H25.0343V24.9877H23.6522V28.5004C23.6522 28.6251 23.663 28.8642 23.5874 29.2383L24.9047 29.706ZM22.1296 31.9924H24.7644V32.8653H22.4428C22.2052 32.8653 22.1296 32.7822 22.1296 32.5639V31.9924Z" fill="#6595F4"/>
</g>
</svg>
