<svg width="116" height="60" viewBox="0 0 116 60" fill="none" xmlns="http://www.w3.org/2000/svg">
<path d="M19.9238 27.606H36.4258V23.98H23.1428C22.4028 23.98 22.0328 23.647 22.0328 23.018V22.389H35.9078V18.911H22.0328V17.431H36.2778V13.879H17.0378V24.979C17.0008 26.533 18.4438 27.606 19.9238 27.606ZM19.4428 39.446H24.2158V32.49H29.1738V39.446H33.9468V32.49H41.0138V28.457H18.4808C16.7788 28.457 15.6688 28.087 14.4848 26.829L10.7478 28.642C12.5608 30.899 15.1508 32.49 18.0738 32.49H19.4428V39.446Z" fill="#283237"/>
<path d="M48.038 33.267H61.469V29.234H51.035C50.295 29.234 49.925 28.827 49.925 28.161V25.941H57.991V21.908H49.925V18.837H60.507V14.804H45.115V30.418C45.115 32.046 46.558 33.267 48.038 33.267ZM70.238 13.509H65.391V22.204H60.063V26.311H65.391V33.859C65.391 35.487 65.206 36.819 65.095 37.522L69.35 39.594C70.275 37.781 70.238 34.784 70.238 33.637V13.509Z" fill="#283237"/>
<path d="M81.5481 42.702C81.5481 44.478 82.9171 45.551 84.4711 45.551H100.418V31.75H95.4971V34.525H86.4691V31.75H81.5481V42.702ZM74.9991 18.097H83.8791V19.947H75.0731V26.866C75.0731 28.494 76.5161 29.715 77.9591 29.715H89.8361V25.682H81.1411C80.2901 25.682 80.0681 25.312 80.0681 24.609V23.795H88.8741V14.175H74.9991V18.097ZM95.9781 30.307C96.3851 28.642 96.4221 28.013 96.4221 25.904V23.203H98.4201V26.015C98.4201 27.643 98.2351 28.975 98.1241 29.678L102.268 31.75C103.193 29.937 103.156 26.94 103.156 25.793V13.509H98.4201V18.874H96.4221V13.509H91.6861V26.015C91.6861 26.459 91.7231 27.31 91.4641 28.642L95.9781 30.307ZM86.4691 38.447H95.4971V41.555H87.5421C86.7281 41.555 86.4691 41.259 86.4691 40.482V38.447Z" fill="#3568EE"/>
</svg>
