<svg width="116" height="60" viewBox="0 0 116 60" fill="none" xmlns="http://www.w3.org/2000/svg">
<path d="M33.0155 28.1872H43.8337V25.8241H35.1258C34.6406 25.8241 34.3981 25.6071 34.3981 25.1972V24.7872H43.4941V22.5206H34.3981V21.556H43.7366V19.2411H31.1235V26.4752C31.0993 27.4879 32.0452 28.1872 33.0155 28.1872ZM32.7002 35.9035H35.8292V31.3702H39.0795V35.9035H42.2085V31.3702H46.8414V28.7418H32.0695C30.9537 28.7418 30.226 28.5007 29.4499 27.6809L27 28.8624C28.1885 30.3333 29.8865 31.3702 31.8027 31.3702H32.7002V35.9035Z" fill="#283237"/>
<path d="M51.4463 31.8766H60.2512V29.2482H53.411C52.9259 29.2482 52.6833 28.983 52.6833 28.5489V27.1021H57.9711V24.4738H52.6833V22.4723H59.6205V19.844H49.53V30.0199C49.53 31.0809 50.476 31.8766 51.4463 31.8766ZM65.9999 19H62.8223V24.6667H59.3295V27.3433H62.8223V32.2624C62.8223 33.3234 62.701 34.1915 62.6283 34.6496L65.4177 36C66.0241 34.8184 65.9999 32.8652 65.9999 32.1177V19Z" fill="#283237"/>
<path d="M73.1866 38.1328C73.1866 39.2968 74.0617 40 75.0551 40H85.2496V30.955H82.1037V32.7737H76.3324V30.955H73.1866V38.1328ZM69 22.0069H74.6767V23.2194H69.0473V27.754C69.0473 28.821 69.9698 29.6212 70.8922 29.6212H78.4848V26.9781H72.9264C72.3824 26.9781 72.2405 26.7356 72.2405 26.2748V25.7413H77.8698V19.4365H69V22.0069ZM82.4112 30.0092C82.6714 28.918 82.695 28.5058 82.695 27.1236V25.3533H83.9723V27.1963C83.9723 28.2633 83.854 29.1363 83.7831 29.597L86.4322 30.955C87.0235 29.7667 86.9999 27.8025 86.9999 27.0508V19H83.9723V22.5162H82.695V19H79.6675V27.1963C79.6675 27.4873 79.6911 28.045 79.5255 28.918L82.4112 30.0092ZM76.3324 35.3441H82.1037V37.3811H77.0183C76.498 37.3811 76.3324 37.1871 76.3324 36.6778V35.3441Z" fill="#3568EE"/>
<path d="M73.1866 38.1328C73.1866 39.2968 74.0617 40 75.0551 40H85.2496V30.955H82.1037V32.7737H76.3324V30.955H73.1866V38.1328ZM69 22.0069H74.6767V23.2194H69.0473V27.754C69.0473 28.821 69.9698 29.6212 70.8922 29.6212H78.4848V26.9781H72.9264C72.3824 26.9781 72.2405 26.7356 72.2405 26.2748V25.7413H77.8698V19.4365H69V22.0069ZM82.4112 30.0092C82.6714 28.918 82.695 28.5058 82.695 27.1236V25.3533H83.9723V27.1963C83.9723 28.2633 83.854 29.1363 83.7831 29.597L86.4322 30.955C87.0235 29.7667 86.9999 27.8025 86.9999 27.0508V19H83.9723V22.5162H82.695V19H79.6675V27.1963C79.6675 27.4873 79.6911 28.045 79.5255 28.918L82.4112 30.0092ZM76.3324 35.3441H82.1037V37.3811H77.0183C76.498 37.3811 76.3324 37.1871 76.3324 36.6778V35.3441Z" fill="#689AFD"/>
</svg>
