<svg width="64" height="64" viewBox="0 0 64 64" fill="none" xmlns="http://www.w3.org/2000/svg">
<path d="M48.7651 5H45.883L41.5395 9.74394L38.0713 13.5315L27.6299 24.9359V28.3001H35.0878V44.0666C35.0878 45.9736 35.3218 47.7238 35.7678 49.3057C36.116 50.5342 36.5933 51.6607 37.1904 52.6775C39.3447 51.5019 41.2833 49.9672 42.9345 48.1547C42.9566 48.1301 42.9787 48.1037 43.0027 48.0791C45.1293 45.7204 46.7712 42.8948 47.759 39.7668C47.9893 39.0392 48.1828 38.2964 48.3413 37.5385C48.6564 36.0227 48.8223 34.4502 48.8223 32.838V17.2171V5H48.7651Z" fill="#283237"/>
<path d="M35.0858 44.0661V28.2996H27.6279V24.9354L38.0693 13.531C34.7965 11.5352 30.9911 10.3652 26.9092 10.3652C15.0839 10.3652 5.44965 19.9741 5.01659 31.9927H5V55.2928H26.2163C26.4467 55.3003 26.6789 55.306 26.9111 55.306C27.1525 55.306 27.392 55.3022 27.6298 55.2928H27.7219V55.289C31.1366 55.1605 34.3468 54.2268 37.1903 52.6751C35.8229 50.3523 35.0858 47.4549 35.0858 44.0661Z" fill="#6595F4"/>
<path d="M58.9999 28.2998V17.2168H48.8184V28.2998H49.1187H58.9999Z" fill="#6595F4"/>
<path d="M59 46.4327H53.057C50.7166 46.4327 48.8203 44.4879 48.8203 42.0876V32.8359C48.8203 41.4355 44.1064 48.8992 37.1885 52.6754C39.562 56.7144 43.8503 58.9994 49.5722 58.9994H59V46.4327Z" fill="#6595F4"/>
</svg>
