<svg width="33" height="15" viewBox="0 0 33 15" fill="none" xmlns="http://www.w3.org/2000/svg">
<path d="M5.31477 7.76H14.2348V5.8H7.05477C6.65477 5.8 6.45477 5.62 6.45477 5.28V4.94H13.9548V3.06H6.45477V2.26H14.1548V0.339999H3.75477V6.34C3.73477 7.18 4.51477 7.76 5.31477 7.76ZM5.05477 14.16H7.63477V10.4H10.3148V14.16H12.8948V10.4H16.7148V8.22H4.53477C3.61477 8.22 3.01477 8.02 2.37477 7.34L0.354766 8.32C1.33477 9.54 2.73477 10.4 4.31477 10.4H5.05477V14.16ZM20.5116 10.82H27.7716V8.64H22.1316C21.7316 8.64 21.5316 8.42 21.5316 8.06V6.86H25.8916V4.68H21.5316V3.02H27.2516V0.84H18.9316V9.28C18.9316 10.16 19.7116 10.82 20.5116 10.82ZM32.5116 0.139999H29.8916V4.84H27.0116V7.06H29.8916V11.14C29.8916 12.02 29.7916 12.74 29.7316 13.12L32.0316 14.24C32.5316 13.26 32.5116 11.64 32.5116 11.02V0.139999Z" fill="#343434"/>
</svg>
