<svg width="21" height="25" viewBox="0 0 21 25" fill="none" xmlns="http://www.w3.org/2000/svg">
<circle cx="10.5" cy="6.5" r="5"  stroke-width="2" fill="none"/>
<path fill-rule="evenodd" clip-rule="evenodd" d="M19.4407 24.5C18.9083 24.5 18.5 24.0324 18.5 23.5C18.5 19.0817 14.9183 15.5 10.5 15.5C6.08172 15.5 2.5 19.0817 2.5 23.5C2.5 24.0324 2.09174 24.5 1.55934 24.5H1.44365C0.936074 24.5 0.505903 24.1149 0.500564 23.6074C0.500188 23.5716 0.5 23.5358 0.5 23.5C0.5 17.9772 4.97715 13.5 10.5 13.5C16.0228 13.5 20.5 17.9772 20.5 23.5C20.5 23.5358 20.4998 23.5716 20.4994 23.6074C20.4941 24.1149 20.0639 24.5 19.5563 24.5H19.4407Z"/>
</svg>
