<svg width="24" height="24" viewBox="0 0 24 24" fill="none" xmlns="http://www.w3.org/2000/svg">
<circle cx="12" cy="7" r="4.5" stroke="#949BAD"/>
<path d="M2.5 20.7C2.5 16.7235 5.72355 13.5 9.7 13.5H14.3C18.2764 13.5 21.5 16.7236 21.5 20.7V20.7C21.5 21.1418 21.1418 21.5 20.7 21.5H3.3C2.85817 21.5 2.5 21.1418 2.5 20.7V20.7Z" stroke="#949BAD" stroke-linejoin="round"/>
<path d="M21.5 20.7C21.5 16.7235 18.2765 13.5 14.3 13.5H9.7C5.72355 13.5 2.5 16.7236 2.5 20.7V20.7C2.5 21.1418 2.85817 21.5 3.3 21.5H20.7C21.1418 21.5 21.5 21.1418 21.5 20.7V20.7Z" stroke="#949BAD" stroke-linejoin="round"/>
</svg>
