<svg width="24" height="24" viewBox="0 0 24 24" fill="none" xmlns="http://www.w3.org/2000/svg">
<path d="M16.9844 6.80125C14.1652 4.09749 9.68383 4.13311 6.90848 6.90812C4.09704 9.7192 4.09704 14.2808 6.90848 17.0919C9.7198 19.9029 14.2817 19.903 17.0932 17.0922C18.4957 15.6821 19.2001 13.8412 19.2001 12C19.2001 11.7791 19.3792 11.6001 19.6 11.6001C19.8209 11.6001 20 11.7791 20 12C20 14.0456 19.2167 16.0916 17.6599 17.6567L17.6591 17.6574C14.5353 20.7809 9.46668 20.7809 6.34286 17.6574C3.21905 14.534 3.21905 9.466 6.34286 6.34257C9.44713 3.23869 14.4719 3.21926 17.6003 6.28429V4.80175C17.6003 4.58089 17.7793 4.40185 18.0002 4.40185C18.2211 4.40185 18.4002 4.58089 18.4002 4.80175V7.20115C18.4002 7.42201 18.2211 7.60105 18.0002 7.60105H15.6005C15.3796 7.60105 15.2006 7.42201 15.2006 7.20115C15.2006 6.98029 15.3796 6.80125 15.6005 6.80125H16.9844Z" fill="#222222"/>
</svg>
