<svg width="24" height="24" viewBox="0 0 24 24" fill="none" xmlns="http://www.w3.org/2000/svg">
<g clip-path="url(#clip0)">
<path d="M21.5 14.5V9.5H19.06C18.97 9.25 18.87 9.01 18.76 8.77L20.48 7.05L16.94 3.51L15.22 5.23C14.98 5.12 14.74 5.02 14.49 4.93V2.5H9.49V4.94C9.24 5.03 9 5.13 8.76 5.24L7.05 3.51L3.51 7.05L5.23 8.77C5.12 9.01 5.02 9.25 4.94 9.5H2.5V14.5H4.94C5.03 14.75 5.13 14.99 5.24 15.23L3.52 16.95L7.06 20.49L8.78 18.77C9.02 18.88 9.26 18.98 9.51 19.07V21.51H14.51V19.07C14.76 18.98 15 18.88 15.24 18.77L16.96 20.49L20.5 16.95L18.78 15.23C18.89 14.99 18.99 14.75 19.08 14.5H21.5Z" stroke="#2C343F" stroke-miterlimit="10"/>
<path d="M12 15.5C13.933 15.5 15.5 13.933 15.5 12C15.5 10.067 13.933 8.5 12 8.5C10.067 8.5 8.5 10.067 8.5 12C8.5 13.933 10.067 15.5 12 15.5Z" stroke="#2C343F" stroke-miterlimit="10"/>
</g>
<defs>
<clipPath id="clip0">
<rect width="20" height="20" fill="white" transform="translate(2 2)"/>
</clipPath>
</defs>
</svg>
