<svg width="23" height="24" viewBox="0 0 23 24" fill="none" xmlns="http://www.w3.org/2000/svg">
<path d="M10.5946 5.43116C10.9543 4.66384 12.0457 4.66384 12.4054 5.43116L13.899 8.61685C14.0406 8.9188 14.3234 9.13031 14.653 9.18081L18.073 9.70477C18.8781 9.82813 19.2059 10.8109 18.636 11.3929L16.1037 13.9789C15.8813 14.2059 15.7801 14.5252 15.8311 14.8389L16.4212 18.4699C16.555 19.2934 15.681 19.909 14.9507 19.5057L11.9834 17.867C11.6826 17.7008 11.3174 17.7008 11.0166 17.867L8.0493 19.5057C7.31897 19.909 6.44498 19.2934 6.57882 18.4699L7.16892 14.8389C7.2199 14.5252 7.11872 14.2059 6.89634 13.9789L4.36401 11.3929C3.79407 10.8109 4.12185 9.82813 4.92704 9.70477L8.34698 9.18081C8.67663 9.13031 8.9594 8.9188 9.10097 8.61685L10.5946 5.43116Z" stroke="#283237" stroke-miterlimit="10" stroke-linecap="round" stroke-linejoin="round"/>
</svg>
