<svg width="16" height="16" viewBox="0 0 16 16" fill="none" xmlns="http://www.w3.org/2000/svg">
<path d="M7.54729 0.965582C7.72717 0.581921 8.27283 0.58192 8.45271 0.965582L10.3578 5.02901C10.4286 5.17999 10.57 5.28574 10.7348 5.31099L15.0365 5.97003C15.4391 6.03171 15.603 6.52309 15.318 6.81409L12.1768 10.0218C12.0656 10.1353 12.015 10.295 12.0405 10.4518L12.7773 14.985C12.8442 15.3967 12.4072 15.7045 12.042 15.5028L8.24172 13.4041C8.09128 13.321 7.90872 13.321 7.75828 13.4041L3.95799 15.5028C3.59282 15.7045 3.15582 15.3967 3.22274 14.985L3.95946 10.4518C3.98495 10.295 3.93436 10.1353 3.82317 10.0218L0.682003 6.81409C0.397037 6.52309 0.560927 6.03171 0.963522 5.97003L5.26516 5.31099C5.42998 5.28574 5.57137 5.17999 5.64215 5.02901L7.54729 0.965582Z" fill="#434A58"/>
</svg>
