<svg width="24" height="24" viewBox="0 0 24 24" fill="none" xmlns="http://www.w3.org/2000/svg">
<path fill-rule="evenodd" clip-rule="evenodd" d="M12 22C17.5228 22 22 17.5228 22 12C22 6.47715 17.5228 2 12 2C6.47715 2 2 6.47715 2 12C2 17.5228 6.47715 22 12 22ZM8 13.3437C7.25 12.5 6.9959 11.6979 7.00005 10.8631C7.0042 10.0689 7.28208 9.34243 7.78807 8.81899C9.10788 7.45457 10.8452 7.94451 12.0226 9.19352C13.2001 7.94451 14.8921 7.45457 16.2119 8.81899C16.7179 9.34243 16.9958 10.0689 16.9999 10.8631C17.0041 11.6979 16.75 12.5 16 13.3437L14 15.3125L11.9774 17L10 15.3125L8 13.3437Z" fill="white"/>
</svg>