<svg width="24" height="24" viewBox="0 0 24 24" fill="none" xmlns="http://www.w3.org/2000/svg">
<circle cx="11.5" cy="12.5" r="11.5" fill="white"/>
<path d="M11.5294 9.33023L11.1613 8.92971C10.4509 8.15676 9.60107 7.65249 8.77294 7.52954C7.96879 7.41015 7.13718 7.641 6.38835 8.43492L11.5294 9.33023ZM11.5294 9.33023L11.8976 8.92971M11.5294 9.33023L11.8976 8.92971M11.8976 8.92971C12.6106 8.15398 13.4463 7.65167 14.2576 7.52937C15.0432 7.41094 15.8606 7.63862 16.6116 8.43492C17.1723 9.02973 17.4951 9.87175 17.4999 10.8199C17.5047 11.8065 17.221 12.7554 16.3329 13.7851L13.7593 16.3835L11.4743 18.3388L9.24271 16.3855L6.66715 13.7852M11.8976 8.92971L6.66715 13.7852M6.66715 13.7852C5.77904 12.7555 5.4953 11.8066 5.50006 10.82L6.66715 13.7852ZM5.50006 10.8199C5.50491 9.87182 5.8277 9.02984 6.38824 8.43504L5.50006 10.8199Z" fill="#6595F4" stroke="#6595F4"/>
</svg>
